<svg width="400mm" height="52.876mm" version="1.1" viewBox="0 0 400 52.876" xmlns="http://www.w3.org/2000/svg"><g transform="matrix(.2919 0 0 .2919 229.7 43.589)"><g transform="matrix(1.0068,0,0,1.0068,-321.77,-177.87)"><g transform="matrix(.95 0 0 .95 -44.647 11.582)" clip-rule="evenodd" fill-rule="evenodd" stroke-width=".26458"><path d="m-361.75 87.75-64.58 119.28h168.4l-64.527-113.33c-11.408-20.916-17.2-29.274-22.224-29.946-5.0247-0.67204-11.226 13.987-17.072 23.996z" fill="#800000"/><g fill="#fff"><path d="m-327.33 119.11c-1.6907 0.87974-3.7854 0.94324-5.9034 1.3293-1.8928 0.34502-4.3034 0.66675-4.1892 2.9284 1.5714 0.33284 2.2871 1.0409 4.9101 1.3062 1.959 0.1979 3.5716 0.0635 4.8696 1.2438 1.225 0.16431 2.708 0.11642 3.6129-0.53684 1.474-1.0642-0.10504-1.1512 2.858-1.4269 1.4036-0.13096 2.1434-0.28442 3.4269-0.74718 0.97843-0.35269 2.1378-1.0099 3.035-1.1441-0.43683-2.0693-1.5346-1.3729-2.7916-2.2762-1.1803 0.20558-2.7752-0.11536-4.1402-0.13679-2.3807-0.0373-1.9465-0.0624-3.7259-0.75168z"/><path d="m-364.95 122.69-0.89562 0.3548c0.38815 1.0959 1.224 0.86837 1.8635 1.6285 2.267 0.0339 3.5393 2.0135 5.897 1.7973 1.3488-0.12409 2.1683-0.17515 3.6653-0.16378 1.387 0.0106 2.5601 0.14552 3.7648-0.39237 0.45323-0.36936 0.11271-0.10372 0.25982-0.41963-0.72258-0.90408-2.3429-1.3621-3.6978-1.7706-1.6978-0.51196-2.6302-0.72786-3.4409-1.8801-2.2958-0.39767-1.7994-0.0532-3.5496 0.49582-0.39529 0.12409-3.0544 0.23972-3.8664 0.35005z"/><path d="m-358.15 97.005c0.48657 1.4851 0.35348 1.8206 3.2816 3.4049 1.8378 0.99431 3.1824 1.1441 4.8355 2.3749 2.2765 1.6939 3.1306 0.53711 6.0251 1.0552 2.1577 0.38629 4.8985 0.96494 6.7897-0.13811-0.16933-1.5841-2.3757-2.7712-3.7317-3.5023-4.1373-2.2307-2.1558-1.7161-4.159-3.0567-2.358-1.5782-3.5526-0.077-6.124-0.29422-3.202-0.2712-3.7068-0.57996-6.9173 0.15637z"/><path d="m-323.55 165.01c-0.57441-1.5695-2.4503-3.637-3.6751-6.0865-1.2248-2.45-0.95674-5.4359-0.84244-7.8859 0.1151-2.4503-0.22939-4.7085-1.5309-5.8949l-0.0619 0.041c-0.15161-0.22092-0.31168-0.42756-0.47122-0.61489-0.73634-0.86545-1.5473-1.5102-2.063-1.6809-0.51541-0.17065-1.1787 0.17066-2.0997 0.20744-0.92075 0.0368-0.82868-0.31327-2.3757-0.17489-1.5473 0.13811-3.601 0.95779-4.7519 0.81941-1.1515-0.13785-1.2988 0.35005-2.5233 0.34078-1.225-9e-3 -2.459 0-3.7666-0.0921-1.3073-0.0923-3.6838 0.75512-4.8532 0.66305-1.1695-0.0921-2.2286-0.50642-3.2877-0.57124-1.0589-0.0643-3.1403 0.36856-3.1403 0.36856l-0.32252 0.10108c-0.322 0.1016-0.39582 0.1016-1.0681-0.24845-0.6723-0.35004-0.97631-0.82867-0.97631-0.82867s0.32226-0.30401 0.60775-0.74613c0.28549-0.44185 0.71834-1.2065 0.88424-1.7034 0.16563-0.49715 0-0.97604-0.41434-1.3354-0.41434-0.3593-0.80142-0.47889-1.5288-0.28548-0.72761 0.19341-1.0314 0.71834-1.0314 0.71834s-0.43021-0.28866-0.94985-0.62838c0.0386-0.0119 0.0714-0.0291 0.096-0.0558-0.34607-0.0222-0.44027-0.26115-0.44027-0.26115s0.91123 0.0177 1.1478-0.54954c-1.6536 0.80169-2.2667-0.92736-3.5954-0.64346 0.0177-0.13097 0.24474-0.2712 0.42545-0.31195-0.30982-0.11509-0.9345-0.0542-1.3211 0.27385 0 0 0.0754-0.21881-2e-3 -0.38947-0.0989 0.24553-0.77232 0.36645-0.9271 0.6104-0.66754 0.27278-1.1142 1.1795-1.4788 1.4399-0.38656 0.27622-0.71808 0.6723-0.71808 0.6723s-0.59876-0.3683-1.0591-0.49741c-0.46011-0.12885-1.2615-0.64453-1.7867-0.69057-0.52467-0.046-1.3811 0.51568-1.851 0.78264-0.46937 0.26697-0.38655 0.52494-0.23018 0.88424 0.15663 0.35904 0.40507 0.7919 0.85619 1.3073 0.45138 0.51593 1.5015 1.4277 2.1828 1.7314 0.68157 0.30374 0.90249 0.39608 0.90249 0.39608s0.1016 0.44185 0.13812 1.0128c0.0365 0.57097-0.33153 1.9153-0.70935 2.6154-0.37756 0.70009-0.66305 1.0224-0.81042 1.1419-0.14737 0.11986-0.35004 0.35904-0.30401 0.4789 0.0463 0.11986-0.046 0.50668-0.046 1.1697 0 0.66305 0.23944 0.94827 0.69056 0.96679 0.45138 0.0185 0.4236 0.11959 0.69056 0.22119 0.26749 0.10134 0.64479 0.34052 0.84746 0.35904 0.20267 0.0183 0.15663-0.0921 0.36857-0.13811 0.21166-0.046 0.46037 0.0463 0.70908-0.0275 0.24844-0.0738 0.41407-0.27649 0.69956-0.31326 0.28575-0.0371 0.84746 0.10107 1.1792 0.14737 0.33125 0.046 0.48789 0.30374 0.7366 0.46963 0.24844 0.16563 0.32226 0.34978 0.32226 0.34978s0.45138 1.0499 0.82867 1.6301c0.37809 0.58023 0.66305 1.3996 0.70009 2.3021 0.0368 0.90223-0.30401 2.7535-0.12012 3.4166 0.18441 0.66332 1.5748 2.2468 2.0537 2.6985 0.47889 0.45138 0.81041 1.1784 0.81041 1.1784s-0.037 1.446 0.17489 2.1646c0.21194 0.71834 0.56198 2.0902 0.74613 3.0115 0.18415 0.92075 0.23945 2.5321 0.4236 3.5729 0.18441 1.0409 0.19341 2.2103 0.39608 2.726 0.20267 0.51568 0.14711 0.86572 0.17489 1.6118 0.0278 0.7456-0.21167 1.2798-0.4789 1.8786-0.26696 0.59875-0.22093 1.6301-0.21166 2.1365 9e-3 0.50667-0.16563 0.93953-0.46038 1.4277-0.29501 0.48789-0.23971 0.635-0.35004 0.88397s-0.54346 0.76438-0.80116 0.99457c-0.25771 0.23045-0.57097 0.27649-0.54319 0.37783 0.0275 0.10107 0.11959 0.22092 0.11959 0.22092s-0.055 0.18415 0.38656 0.25824c0.44238 0.0733 2.0907 0.17489 2.4495 0.064 0.3593-0.11033 0.43312-0.40507 0.7829-0.69982 0.35004-0.29448 0.36857-0.47916 0.3593-0.90249-0.01-0.42386 0.0368-0.98557 0.21167-1.2523 0.17489-0.2667 0.27623-0.11986 0.45826-0.20294 0.18203-0.0828 0.18653-0.54319 0.13123-0.72734-0.055-0.18441 0.0275-1.0776-0.0275-1.6206-0.0553-0.54372-0.0831-1.1792-0.10134-2.3302-0.0183-1.1515 0.0828-2.2288 0.10134-2.7445 0.0183-0.51567 0.28522-1.2433 0.45111-1.8881s0.15663-1.2523 0.33152-1.9061c0.17516-0.65405 0.13812-1.6394 0.0921-2.3574-0.0458-0.71861-0.0368-1.4922 0-1.7037 0.037-0.21193 0.46963-0.23018 0.8382-0.37756 0.36803-0.14737 0.93001-0.0923 0.93001-0.0923s0.13811 0.36857 0.27622 0.68131c0.13838 0.31326 0.15664 1.4002 0.23945 2.1275 0.0831 0.72734-0.10133 1.9799-0.33152 2.689s0.0185 2.0815 0.313 3.0022c0.29501 0.92101 0.81042 1.8695 1.0501 2.3667 0.23972 0.49741 0.33126 1.9706 0.23945 2.6982-0.0921 0.7276-0.3593 1.6854-0.30401 2.2842 0.0556 0.59848-0.046 1.538-0.19341 1.906-0.1471 0.36857-0.23918 0.93954-0.34051 1.197-0.10108 0.2585-0.60775 1.17-0.80116 1.3909-0.19341 0.22119-0.0185 0.44186 0.22092 0.46937 0.23972 0.0275 0.61701 9e-3 0.61701 9e-3s0.32226 0.14738 0.94853 0.13812c0.62627-9e-3 1.2801-0.10134 1.6481-0.29448 0.36883-0.19341 0.60802-1.1975 0.70009-1.3724 0.0923-0.17489-0.0921-0.54345-0.20267-0.74586-0.11033-0.20267-0.0368-0.61701-0.0183-0.94879 0.0185-0.33153 0.22093-0.23919 0.39582-0.3773s-0.0458-0.73686-0.055-1.0041c-9e-3 -0.26697 9e-3 -0.74586-0.19341-1.3168-0.20267-0.57097-0.33153-1.501-0.49742-2.376-0.16563-0.87525-0.17489-1.5931-0.22093-2.1458-0.0458-0.55245 0.20267-1.0499 0.31327-1.2155 0.1106-0.16616-0.0646-0.62653 0-0.93954 0.0646-0.313 0.14737-0.99456 0.13732-1.6208-0.0101-0.62627-0.13732-0.89324-0.0728-1.4182 0.0646-0.52467 0.25797-1.3629 0.34078-2.7535 0.0831-1.3906 0.34078-2.79 0.64479-3.2232 0.30374-0.43286 1.3814-0.15664 2.7075 0.046 1.3264 0.20267 4.3191 0.12885 5.6269-0.10134s2.5786-1.2893 2.5786-1.2893c2.7e-4 0 0.34978 1.4735 0.50615 2.2288 0.1569 0.75513 0.49768 1.492 0.87498 2.3757 0.37809 0.88397 0.43312 1.8238 0.49768 2.8638 0.0643 1.0409 0.0828 1.9344 0.0368 3.0118s-0.44212 2.5048-0.61701 2.9194c-0.17489 0.41408-0.50641 1.9614-0.57997 2.4125-0.0736 0.45112-0.62627 1.3631-0.95779 1.8971-0.33152 0.53445-0.96705 1.1697-1.2433 1.4092-0.27622 0.23945-0.60774 0.46937-0.46963 0.60775 0.13811 0.13784 0.54345 0.22119 0.54345 0.22119 2.7e-4 0 0.22119 0.14711 0.87524 0.18415 0.65405 0.0368 1.51 0 1.8418-0.037 0.33152-0.037 0.52493-0.4699 0.76438-0.65405s0.10134-0.5895 0.12885-1.0499c0.0275-0.46038 0.44212-1.1052 0.61701-1.188s0.32226 0.19315 0.51567 0.11959c0.19315-0.0735 0.0923-0.55245 0.17516-1.4089 0.0828-0.85619 0.27622-1.8235 0.46037-2.8178 0.18389-0.99483 0.51541-2.2656 0.69057-2.7443 0.17462-0.47889 0.36856-1.6026 0.48815-2.2288 0.11959-0.626 0.37756-1.538 0.4236-2.1825 0.0463-0.64479 0.33152-1.3076 0.45111-1.7219 0.1196-0.4146 0.28549-0.68157-0.0735-1.1972-0.35904-0.51567-0.80089-2.1826-0.97605-2.8826-0.17489-0.70008-0.23019-1.4459-0.19341-2.0537 0.037-0.60802 0.19341-1.2621 0.44212-1.2155 0.24871 0.0458 1.1419 1.9336 1.4092 2.3297 0.26697 0.39581 0.25771 0.77364 0.27623 1.3814 0.0185 0.60801 0.28522 1.8883 0.47889 2.6522 0.19341 0.76438 0.4146 1.1419 0.37783 1.4182-0.0368 0.27649 0.0736 1.0406 0.23918 1.5102 0.16589 0.46963 0.25797 1.179 0.3593 1.75 0.10108 0.57097 0.46012 1.243 0.5895 1.9063 0.12858 0.66304 0.17489 1.9521 0.11033 2.9927-0.064 1.0409-0.37756 1.6671-0.54346 1.9344-0.16563 0.26696-0.12858 1.3724-0.19341 2.0812-0.0643 0.70908-0.29448 1.2618-0.46937 1.6116-0.17489 0.34951-0.0733 0.69056-0.27622 0.90249-0.20267 0.21193-0.55245 0.8935-0.7366 1.1419-0.18442 0.24845-0.1016 0.37756 0.30374 0.39608 0.40508 0.0183 0.62627-9e-3 0.62627-9e-3s9e-3 0.12885 0.23918 0.15664c0.23045 0.0275 0.44212 0.037 1.0038 0 0.56198-0.0373 0.54345-0.0831 0.8472-0.14738 0.30374-0.0646 0.37782-0.1016 0.46037-0.26749 0.0828-0.16537 0.46964-0.70935 0.43286-0.91176-0.0368-0.2024-0.16563-0.56144-0.17489-1.0589-9e-3 -0.49715 0.18415-0.95752 0.313-1.0681 0.12912-0.1106 0.19341 0.0553 0.37783-0.0553 0.18441-0.11059-0.055-0.7919-0.0643-0.99483-9e-3 -0.20267-0.0923-0.58923-0.14763-1.197-0.055-0.60774-0.18415-1.2523-0.0921-2.726 0.0923-1.4732 0.18415-2.9284 0.44212-3.9047 0.2577-0.97578 0-1.7682 0.0183-2.3945 0.0185-0.62627 0.33178-1.4732 0.47916-2.0627 0.14737-0.58976 0.16589-0.82894-0.23469-1.437-0.40084-0.60775-0.74163-2.1918-0.889-3.2599-0.14737-1.0684 0.33152-2.6522 0.46064-3.5364 0.12885-0.88424-0.25797-2.8546-0.31327-3.7574-0.0556-0.90223 0.14711-2.6151 0.14711-3.8492 0-0.54531 0.0794-1.2409 0.18177-1.9656 0.0344 1.2726-0.0582 3.0615 0.15134 5.2292 0.25876 2.6702 1.493 4.0196 2.0095 4.9096 0.51726 0.89006 0.14605 1.1594-0.0265 2.8244-0.17198 1.6653 2.0172 2.2381 1.5579 4.305 0.52335-0.64162 0.26829-2.2585 0.26829-2.2585s0.89958 4.5937 0.0384 5.3975c0.82286-0.11483 1.2631-1.4737 1.2631-1.4737s-0.019 0.68898-0.42095 1.206c0.72708-0.42121 0.84217-1.1869 1.0335-2.2585 0.18997-1.0708 0.3429-1.9894-0.23124-3.5589z"/></g><path d="m-275.7 191.16-143.12 3e-3 -8.8456-0.0339 9.0816-16.036c0.80063-1.5023 1.3131-2.4199 2.1312-3.883l8.3307-15.381c0.52334-1.4534 2.7617-5.1102 3.4518-6.446l40.924-73.704c2.4736-4.6379 4.84-8.876 7.4263-13.447 1.7066-3.0141 8.3053-6.7199 12.149 2.0103 23.799 42.965 44.392 84.318 68.469 126.92zm-163.64 5.1517c0.11642 0.77522 0.46593 1.5145 1.1168 2.1939 2.0151 2.104 9.1289 0.74348 14.45 1.1946 27.083-0.4699 54.595-0.018 81.725-0.018 3.0115 0 74.336 0.36036 76.61-0.24183 1.3803-0.36512 1.651-0.92022 2.4331-1.8103l0.3683-0.40216c0.0407-0.0447 0.12223-0.13891 0.19208-0.19976 0-4.5985-1.7272-5.9997-4.3585-10.738-0.96917-1.7462-1.6354-3.0776-2.6054-4.8242l-9.4266-17.107c-0.56779-1.0546-0.84798-1.3494-1.4182-2.4741l-4.0143-7.3067c-0.56541-1.0179-0.84296-1.3684-1.4092-2.4828l-44.814-81.136c-0.56277-1.0565-0.84535-1.3502-1.416-2.4749l-4.0042-7.3168c-2.286-4.5408-4.3048-7.8184-9.2086-9.8965-4.686-1.9854-9.007-0.91731-12.738 0.9316-2.1444 1.0626-2.5146 1.7711-4.0965 3.3324-1.446 1.4248-2.1593 2.8956-3.0877 4.6948l-5.4285 9.7859c-1.7394 3.4301-3.683 6.3587-5.4224 9.7901-0.53948 1.0628-0.75538 1.2753-1.2925 2.245l-12.255 22.063c-6.2376 10.791-12.799 23.676-19.136 34.639-0.8628 1.4928-1.8283 3.1036-2.6969 4.7326-0.95302 1.7875-1.7116 3.3099-2.7432 5.0403l-24.509 44.127c-0.41408 0.80196-0.70776 1.6084-0.81519 2.3942v1.2629z" fill="#faa"/></g></g><path d="m-125.44-102.63 49.796 134.44h41.332l49.796-134.44h-34.849l-35.568 99.231-35.658-99.231zm158.66 0v134.44h34.667v-134.44zm68.794 0v134.44h95.54v-26.204h-60.871v-108.24zm117.42 0v134.44h95.54v-26.204h-60.871v-108.24zm117.42 0v134.44h95.54v-26.204h-60.871v-30.795h55.379v-26.203h-55.379v-25.034h58.89v-26.203zm126.07 0v134.44h32.867v-92.207l48.895 92.207h38.721v-134.44h-32.867v92.207l-48.896-92.207z" fill="#800000"/><path d="m-539.84-104.6v90.17c0 12.588-2.3762 21.515-7.1288 26.781-4.6241 5.1379-11.881 7.707-21.772 7.707-3.3396 0-6.4227-0.32101-9.2485-0.96325s-5.3944-1.4772-7.7065-2.5048c-2.312-1.0276-4.3673-2.1197-6.1655-3.2758-1.6698-1.2845-3.083-2.4404-4.239-3.468l-6.1655 10.597c1.0276 1.0276 2.5051 2.184 4.4318 3.4685 2.0552 1.2845 4.56 2.5047 7.5143 3.6608 2.9543 1.156 6.3578 2.1191 10.211 2.8897 3.8534 0.89913 8.0924 1.3488 12.717 1.3488 7.8353 0 14.322-1.0916 19.46-3.2753 5.2663-2.312 9.4405-5.4589 12.523-9.4408 3.2112-4.1103 5.4593-8.8633 6.7438-14.258 1.2845-5.5232 1.9265-11.496 1.9265-17.918v-91.518zm46.497 0v84.004c0 7.3215 0.83494 14.193 2.5048 20.616 1.7983 6.2939 4.6241 11.818 8.4775 16.57 3.8534 4.7525 8.8626 8.4771 15.028 11.175 6.2939 2.6974 13.873 4.0463 22.736 4.0463s16.377-1.3489 22.542-4.0463c6.2939-2.6974 11.367-6.422 15.221-11.175 3.8534-4.7525 6.615-10.276 8.2848-16.57 1.7983-6.4224 2.6975-13.294 2.6975-20.616v-84.004h-13.102v82.27c0 7.3215-0.89925 13.68-2.6975 19.074-1.6698 5.2663-4.046 9.6335-7.1288 13.102-3.0827 3.4681-6.8078 6.0372-11.175 7.707s-9.2477 2.5048-14.643 2.5048-10.276-0.83494-14.643-2.5048c-4.3672-1.6698-8.0923-4.2389-11.175-7.707s-5.5233-7.8352-7.3215-13.102c-1.6698-5.3948-2.5048-11.753-2.5048-19.074v-82.27zm170.07 0c-4.7526 9.8904-9.2483 19.781-13.487 29.671-4.2388 9.8904-8.5416 20.231-12.909 31.02-4.2388 10.661-8.6064 22.028-13.102 34.102-4.4956 11.946-9.3124 24.855-14.45 38.727h13.68c2.312-6.5508 4.5596-12.845 6.7433-18.882 2.1836-6.037 4.3674-11.945 6.551-17.726h64.93c2.0552 5.7801 4.1747 11.689 6.3583 17.726s4.4955 12.331 6.936 18.882h14.45c-5.2663-13.872-10.147-26.781-14.643-38.727-4.4957-12.074-8.9276-23.441-13.295-34.102-4.2388-10.79-8.4772-21.13-12.716-31.02-4.2388-9.8904-8.7345-19.781-13.487-29.671zm84.896 0v133.52h12.909v-112.52c3.725 4.3672 7.8997 9.5693 12.524 15.606 4.7526 6.037 9.5693 12.524 14.45 19.46 5.0094 6.8077 10.019 13.873 15.028 21.194 5.0094 7.193 9.7624 14.257 14.258 21.194 4.4956 6.8077 8.6056 13.23 12.331 19.267 3.8534 6.037 7.0008 11.303 9.4413 15.799h10.982v-133.52h-12.909v108.67c-3.9819-7.0646-9.1196-15.35-15.414-24.855-6.1655-9.5051-12.845-19.202-20.038-29.093-7.193-10.019-14.578-19.781-22.157-29.286-7.45-9.6335-14.451-18.111-21.001-25.433zm-79.501 15.028c4.881 11.046 9.6334 22.286 14.258 33.717 4.6241 11.432 9.3771 23.763 14.258 36.993h-56.838c4.881-13.23 9.5691-25.561 14.065-36.993 4.6241-11.432 9.3766-22.671 14.258-33.717z" fill="#fff"/><path d="m403.79-149.33-23.724 31.631h23.484l34.147-31.631z" fill="#800000"/></g></svg>
